# xmcd
#
# Track frame offsets:
#	150
#	12100
#	27920
#	42530
#	60070
#	75910
#	90500
#	100565
#	120940
#	132965
#	144195
#	157185
#	170450
#	186010
#
# Disc length: 2659 seconds
#
# Revision: 0
# Processed by: cddbd v1.5.2PL0 Copyright (c) Steve Scherf et al.
# Submitted via: EasyCDDAExtractor 10.2.0.1
#
DISCID=990a610e
DTITLE=Os Penachos - Vol II
DYEAR=1900
DGENRE=
TTITLE0=Fandango do Tio Derfo
TTITLE1=Sogro Rico e Porco Gordo
TTITLE2=Cozinhados do Sinfronho
TTITLE3=Paixão de Infância
TTITLE4=Vai e Vem da Milonga
TTITLE5=Égua Tostada
TTITLE6=Égua Baia
TTITLE7=História dos Cornos
TTITLE8=Chinaredo Incomodativo
TTITLE9=Perdendo Passo
TTITLE10=Dançando
TTITLE11=Mensagem de Artista
TTITLE12=João Maleva
TTITLE13=Só Quero Xote
EXTD=
EXTT0=
EXTT1=
EXTT2=
EXTT3=
EXTT4=
EXTT5=
EXTT6=
EXTT7=
EXTT8=
EXTT9=
EXTT10=
EXTT11=
EXTT12=
EXTT13=
PLAYORDER=
